<mxfile host="65bd71144e" pages="3">
    <diagram id="C5RBs43oDa-KdzZeNtuy" name="6-1(1)">
        <mxGraphModel dx="694" dy="575" grid="1" gridSize="10" guides="1" tooltips="1" connect="1" arrows="1" fold="1" page="1" pageScale="1" pageWidth="827" pageHeight="1169" math="0" shadow="0">
            <root>
                <mxCell id="WIyWlLk6GJQsqaUBKTNV-0"/>
                <mxCell id="WIyWlLk6GJQsqaUBKTNV-1" parent="WIyWlLk6GJQsqaUBKTNV-0"/>
                <mxCell id="WIyWlLk6GJQsqaUBKTNV-2" value="" style="rounded=0;html=1;jettySize=auto;orthogonalLoop=1;fontSize=11;endArrow=classic;endFill=1;endSize=8;strokeWidth=1;shadow=0;labelBackgroundColor=none;edgeStyle=orthogonalEdgeStyle;entryX=0.5;entryY=0;entryDx=0;entryDy=0;" parent="WIyWlLk6GJQsqaUBKTNV-1" source="WIyWlLk6GJQsqaUBKTNV-3" target="Loc-VI8FlqgbfC42Ijd2-4" edge="1">
                    <mxGeometry relative="1" as="geometry">
                        <mxPoint x="330" y="140" as="targetPoint"/>
                    </mxGeometry>
                </mxCell>
                <mxCell id="WIyWlLk6GJQsqaUBKTNV-3" value="開始" style="rounded=1;whiteSpace=wrap;html=1;fontSize=12;glass=0;strokeWidth=1;shadow=0;" parent="WIyWlLk6GJQsqaUBKTNV-1" vertex="1">
                    <mxGeometry x="160" y="80" width="120" height="40" as="geometry"/>
                </mxCell>
                <mxCell id="WIyWlLk6GJQsqaUBKTNV-4" value="Yes" style="rounded=0;html=1;jettySize=auto;orthogonalLoop=1;fontSize=11;endArrow=classic;endFill=1;endSize=8;strokeWidth=1;shadow=0;labelBackgroundColor=none;edgeStyle=orthogonalEdgeStyle;entryX=0.5;entryY=0;entryDx=0;entryDy=0;" parent="WIyWlLk6GJQsqaUBKTNV-1" source="WIyWlLk6GJQsqaUBKTNV-6" target="Loc-VI8FlqgbfC42Ijd2-1" edge="1">
                    <mxGeometry y="20" relative="1" as="geometry">
                        <mxPoint as="offset"/>
                        <mxPoint x="250" y="300" as="targetPoint"/>
                        <Array as="points">
                            <mxPoint x="220" y="320"/>
                            <mxPoint x="220" y="320"/>
                        </Array>
                    </mxGeometry>
                </mxCell>
                <mxCell id="WIyWlLk6GJQsqaUBKTNV-5" value="No" style="edgeStyle=orthogonalEdgeStyle;rounded=0;html=1;jettySize=auto;orthogonalLoop=1;fontSize=11;endArrow=classic;endFill=1;strokeWidth=1;shadow=0;labelBackgroundColor=none;entryX=0.5;entryY=0;entryDx=0;entryDy=0;" parent="WIyWlLk6GJQsqaUBKTNV-1" source="WIyWlLk6GJQsqaUBKTNV-6" target="Loc-VI8FlqgbfC42Ijd2-0" edge="1">
                    <mxGeometry y="10" relative="1" as="geometry">
                        <mxPoint as="offset"/>
                        <mxPoint x="420" y="260" as="targetPoint"/>
                    </mxGeometry>
                </mxCell>
                <mxCell id="WIyWlLk6GJQsqaUBKTNV-6" value="A社の&lt;br&gt;チョコレート&lt;br&gt;のほうが安い" style="rhombus;whiteSpace=wrap;html=1;shadow=0;fontFamily=Helvetica;fontSize=12;align=center;strokeWidth=1;spacing=6;spacingTop=-4;" parent="WIyWlLk6GJQsqaUBKTNV-1" vertex="1">
                    <mxGeometry x="160" y="220" width="120" height="70" as="geometry"/>
                </mxCell>
                <mxCell id="WIyWlLk6GJQsqaUBKTNV-11" value="終了" style="rounded=1;whiteSpace=wrap;html=1;fontSize=12;glass=0;strokeWidth=1;shadow=0;" parent="WIyWlLk6GJQsqaUBKTNV-1" vertex="1">
                    <mxGeometry x="160" y="520" width="120" height="40" as="geometry"/>
                </mxCell>
                <mxCell id="Loc-VI8FlqgbfC42Ijd2-0" value="B社のチョコレートを&lt;br&gt;買う" style="rounded=0;whiteSpace=wrap;html=1;" parent="WIyWlLk6GJQsqaUBKTNV-1" vertex="1">
                    <mxGeometry x="320" y="340" width="140" height="40" as="geometry"/>
                </mxCell>
                <mxCell id="Loc-VI8FlqgbfC42Ijd2-1" value="A社のチョコレートを&lt;br&gt;買う" style="rounded=0;whiteSpace=wrap;html=1;" parent="WIyWlLk6GJQsqaUBKTNV-1" vertex="1">
                    <mxGeometry x="160" y="340" width="120" height="40" as="geometry"/>
                </mxCell>
                <mxCell id="Loc-VI8FlqgbfC42Ijd2-2" value="" style="endArrow=classic;html=1;exitX=0.5;exitY=1;exitDx=0;exitDy=0;entryX=0.5;entryY=0;entryDx=0;entryDy=0;" parent="WIyWlLk6GJQsqaUBKTNV-1" source="Loc-VI8FlqgbfC42Ijd2-1" target="Loc-VI8FlqgbfC42Ijd2-6" edge="1">
                    <mxGeometry width="50" height="50" relative="1" as="geometry">
                        <mxPoint x="280" y="400" as="sourcePoint"/>
                        <mxPoint x="220" y="430" as="targetPoint"/>
                    </mxGeometry>
                </mxCell>
                <mxCell id="Loc-VI8FlqgbfC42Ijd2-3" value="" style="endArrow=classic;html=1;exitX=0.5;exitY=1;exitDx=0;exitDy=0;rounded=0;" parent="WIyWlLk6GJQsqaUBKTNV-1" source="Loc-VI8FlqgbfC42Ijd2-0" edge="1">
                    <mxGeometry width="50" height="50" relative="1" as="geometry">
                        <mxPoint x="280" y="400" as="sourcePoint"/>
                        <mxPoint x="220" y="410" as="targetPoint"/>
                        <Array as="points">
                            <mxPoint x="390" y="410"/>
                        </Array>
                    </mxGeometry>
                </mxCell>
                <mxCell id="Loc-VI8FlqgbfC42Ijd2-4" value="コンビニに行く" style="rounded=0;whiteSpace=wrap;html=1;" parent="WIyWlLk6GJQsqaUBKTNV-1" vertex="1">
                    <mxGeometry x="160" y="150" width="120" height="40" as="geometry"/>
                </mxCell>
                <mxCell id="Loc-VI8FlqgbfC42Ijd2-5" value="" style="endArrow=classic;html=1;exitX=0.5;exitY=1;exitDx=0;exitDy=0;entryX=0.5;entryY=0;entryDx=0;entryDy=0;" parent="WIyWlLk6GJQsqaUBKTNV-1" source="Loc-VI8FlqgbfC42Ijd2-4" target="WIyWlLk6GJQsqaUBKTNV-6" edge="1">
                    <mxGeometry width="50" height="50" relative="1" as="geometry">
                        <mxPoint x="270" y="320" as="sourcePoint"/>
                        <mxPoint x="320" y="270" as="targetPoint"/>
                    </mxGeometry>
                </mxCell>
                <mxCell id="Loc-VI8FlqgbfC42Ijd2-7" value="" style="edgeStyle=orthogonalEdgeStyle;rounded=0;orthogonalLoop=1;jettySize=auto;html=1;endArrow=classic;endFill=1;" parent="WIyWlLk6GJQsqaUBKTNV-1" source="Loc-VI8FlqgbfC42Ijd2-6" target="WIyWlLk6GJQsqaUBKTNV-11" edge="1">
                    <mxGeometry relative="1" as="geometry"/>
                </mxCell>
                <mxCell id="Loc-VI8FlqgbfC42Ijd2-6" value="家に帰る" style="rounded=0;whiteSpace=wrap;html=1;" parent="WIyWlLk6GJQsqaUBKTNV-1" vertex="1">
                    <mxGeometry x="160" y="440" width="120" height="40" as="geometry"/>
                </mxCell>
            </root>
        </mxGraphModel>
    </diagram>
    <diagram id="NvyowUhIk1ZE0fXcc_Lb" name="6-1(2)">
        <mxGraphModel dx="694" dy="575" grid="1" gridSize="10" guides="1" tooltips="1" connect="1" arrows="1" fold="1" page="1" pageScale="1" pageWidth="827" pageHeight="1169" math="0" shadow="0">
            <root>
                <mxCell id="6e0GRxbHZnDfmjbz0CYi-0"/>
                <mxCell id="6e0GRxbHZnDfmjbz0CYi-1" parent="6e0GRxbHZnDfmjbz0CYi-0"/>
                <mxCell id="IdI36_RjcVnUkwe0hgmz-0" value="" style="rounded=0;html=1;jettySize=auto;orthogonalLoop=1;fontSize=11;endArrow=classic;endFill=1;endSize=8;strokeWidth=1;shadow=0;labelBackgroundColor=none;edgeStyle=orthogonalEdgeStyle;entryX=0.5;entryY=0;entryDx=0;entryDy=0;" parent="6e0GRxbHZnDfmjbz0CYi-1" source="IdI36_RjcVnUkwe0hgmz-1" target="IdI36_RjcVnUkwe0hgmz-10" edge="1">
                    <mxGeometry relative="1" as="geometry">
                        <mxPoint x="330" y="140" as="targetPoint"/>
                    </mxGeometry>
                </mxCell>
                <mxCell id="IdI36_RjcVnUkwe0hgmz-1" value="開始" style="rounded=1;whiteSpace=wrap;html=1;fontSize=12;glass=0;strokeWidth=1;shadow=0;" parent="6e0GRxbHZnDfmjbz0CYi-1" vertex="1">
                    <mxGeometry x="160" y="100" width="120" height="40" as="geometry"/>
                </mxCell>
                <mxCell id="ZtBa_YAFVA_Vi5Olh_qq-9" style="edgeStyle=orthogonalEdgeStyle;rounded=0;orthogonalLoop=1;jettySize=auto;html=1;exitX=0.5;exitY=1;exitDx=0;exitDy=0;entryX=0.5;entryY=0;entryDx=0;entryDy=0;endArrow=classic;endFill=1;" parent="6e0GRxbHZnDfmjbz0CYi-1" source="IdI36_RjcVnUkwe0hgmz-4" target="ZtBa_YAFVA_Vi5Olh_qq-3" edge="1">
                    <mxGeometry relative="1" as="geometry"/>
                </mxCell>
                <mxCell id="IdI36_RjcVnUkwe0hgmz-4" value="スーパーが休み" style="rhombus;whiteSpace=wrap;html=1;shadow=0;fontFamily=Helvetica;fontSize=12;align=center;strokeWidth=1;spacing=6;spacingTop=-4;" parent="6e0GRxbHZnDfmjbz0CYi-1" vertex="1">
                    <mxGeometry x="160" y="240" width="120" height="60" as="geometry"/>
                </mxCell>
                <mxCell id="IdI36_RjcVnUkwe0hgmz-5" value="終了" style="rounded=1;whiteSpace=wrap;html=1;fontSize=12;glass=0;strokeWidth=1;shadow=0;" parent="6e0GRxbHZnDfmjbz0CYi-1" vertex="1">
                    <mxGeometry x="160" y="620" width="120" height="40" as="geometry"/>
                </mxCell>
                <mxCell id="IdI36_RjcVnUkwe0hgmz-8" value="" style="endArrow=classic;html=1;entryX=0.5;entryY=0;entryDx=0;entryDy=0;exitX=0.5;exitY=1;exitDx=0;exitDy=0;" parent="6e0GRxbHZnDfmjbz0CYi-1" source="ZtBa_YAFVA_Vi5Olh_qq-4" target="IdI36_RjcVnUkwe0hgmz-13" edge="1">
                    <mxGeometry width="50" height="50" relative="1" as="geometry">
                        <mxPoint x="220" y="490" as="sourcePoint"/>
                        <mxPoint x="220" y="430" as="targetPoint"/>
                    </mxGeometry>
                </mxCell>
                <mxCell id="IdI36_RjcVnUkwe0hgmz-10" value="スーパーに行く" style="rounded=0;whiteSpace=wrap;html=1;" parent="6e0GRxbHZnDfmjbz0CYi-1" vertex="1">
                    <mxGeometry x="160" y="170" width="120" height="40" as="geometry"/>
                </mxCell>
                <mxCell id="IdI36_RjcVnUkwe0hgmz-11" value="" style="endArrow=classic;html=1;exitX=0.5;exitY=1;exitDx=0;exitDy=0;entryX=0.5;entryY=0;entryDx=0;entryDy=0;" parent="6e0GRxbHZnDfmjbz0CYi-1" source="IdI36_RjcVnUkwe0hgmz-10" target="IdI36_RjcVnUkwe0hgmz-4" edge="1">
                    <mxGeometry width="50" height="50" relative="1" as="geometry">
                        <mxPoint x="270" y="320" as="sourcePoint"/>
                        <mxPoint x="320" y="270" as="targetPoint"/>
                    </mxGeometry>
                </mxCell>
                <mxCell id="IdI36_RjcVnUkwe0hgmz-12" value="" style="edgeStyle=orthogonalEdgeStyle;rounded=0;orthogonalLoop=1;jettySize=auto;html=1;endArrow=classic;endFill=1;" parent="6e0GRxbHZnDfmjbz0CYi-1" source="IdI36_RjcVnUkwe0hgmz-13" target="IdI36_RjcVnUkwe0hgmz-5" edge="1">
                    <mxGeometry relative="1" as="geometry"/>
                </mxCell>
                <mxCell id="IdI36_RjcVnUkwe0hgmz-13" value="家に帰る" style="rounded=0;whiteSpace=wrap;html=1;" parent="6e0GRxbHZnDfmjbz0CYi-1" vertex="1">
                    <mxGeometry x="160" y="550" width="120" height="40" as="geometry"/>
                </mxCell>
                <mxCell id="ZtBa_YAFVA_Vi5Olh_qq-0" style="edgeStyle=orthogonalEdgeStyle;rounded=0;orthogonalLoop=1;jettySize=auto;html=1;exitX=1;exitY=0.5;exitDx=0;exitDy=0;endArrow=classic;endFill=1;" parent="6e0GRxbHZnDfmjbz0CYi-1" source="IdI36_RjcVnUkwe0hgmz-4" edge="1">
                    <mxGeometry x="300" y="250" as="geometry">
                        <mxPoint x="220" y="520" as="targetPoint"/>
                        <Array as="points">
                            <mxPoint x="480" y="270"/>
                            <mxPoint x="480" y="520"/>
                        </Array>
                    </mxGeometry>
                </mxCell>
                <mxCell id="ZtBa_YAFVA_Vi5Olh_qq-1" value="Yes" style="text;html=1;align=center;verticalAlign=middle;resizable=0;points=[];autosize=1;strokeColor=none;" parent="6e0GRxbHZnDfmjbz0CYi-1" vertex="1">
                    <mxGeometry x="300" y="250" width="30" height="20" as="geometry"/>
                </mxCell>
                <mxCell id="ZtBa_YAFVA_Vi5Olh_qq-6" style="edgeStyle=orthogonalEdgeStyle;rounded=0;orthogonalLoop=1;jettySize=auto;html=1;exitX=1;exitY=0.5;exitDx=0;exitDy=0;entryX=0.5;entryY=0;entryDx=0;entryDy=0;endArrow=classic;endFill=1;" parent="6e0GRxbHZnDfmjbz0CYi-1" source="ZtBa_YAFVA_Vi5Olh_qq-3" target="ZtBa_YAFVA_Vi5Olh_qq-5" edge="1">
                    <mxGeometry relative="1" as="geometry"/>
                </mxCell>
                <mxCell id="ZtBa_YAFVA_Vi5Olh_qq-3" value="りんごの方が&lt;br&gt;安い" style="rhombus;whiteSpace=wrap;html=1;" parent="6e0GRxbHZnDfmjbz0CYi-1" vertex="1">
                    <mxGeometry x="160" y="330" width="120" height="60" as="geometry"/>
                </mxCell>
                <mxCell id="ZtBa_YAFVA_Vi5Olh_qq-4" value="みかんを買う" style="rounded=0;whiteSpace=wrap;html=1;" parent="6e0GRxbHZnDfmjbz0CYi-1" vertex="1">
                    <mxGeometry x="160" y="420" width="120" height="40" as="geometry"/>
                </mxCell>
                <mxCell id="ZtBa_YAFVA_Vi5Olh_qq-8" style="edgeStyle=orthogonalEdgeStyle;rounded=0;orthogonalLoop=1;jettySize=auto;html=1;endArrow=classic;endFill=1;" parent="6e0GRxbHZnDfmjbz0CYi-1" source="ZtBa_YAFVA_Vi5Olh_qq-5" edge="1">
                    <mxGeometry relative="1" as="geometry">
                        <mxPoint x="220" y="490" as="targetPoint"/>
                        <Array as="points">
                            <mxPoint x="380" y="490"/>
                            <mxPoint x="220" y="490"/>
                        </Array>
                    </mxGeometry>
                </mxCell>
                <mxCell id="ZtBa_YAFVA_Vi5Olh_qq-5" value="りんごを買う" style="rounded=0;whiteSpace=wrap;html=1;" parent="6e0GRxbHZnDfmjbz0CYi-1" vertex="1">
                    <mxGeometry x="320" y="420" width="120" height="40" as="geometry"/>
                </mxCell>
                <mxCell id="ZtBa_YAFVA_Vi5Olh_qq-7" value="" style="endArrow=classic;html=1;exitX=0.5;exitY=1;exitDx=0;exitDy=0;entryX=0.5;entryY=0;entryDx=0;entryDy=0;entryPerimeter=0;" parent="6e0GRxbHZnDfmjbz0CYi-1" source="ZtBa_YAFVA_Vi5Olh_qq-3" target="ZtBa_YAFVA_Vi5Olh_qq-4" edge="1">
                    <mxGeometry width="50" height="50" relative="1" as="geometry">
                        <mxPoint x="210" y="450" as="sourcePoint"/>
                        <mxPoint x="260" y="400" as="targetPoint"/>
                    </mxGeometry>
                </mxCell>
                <mxCell id="ZtBa_YAFVA_Vi5Olh_qq-10" value="Yes" style="text;html=1;strokeColor=none;fillColor=none;align=center;verticalAlign=middle;whiteSpace=wrap;rounded=0;" parent="6e0GRxbHZnDfmjbz0CYi-1" vertex="1">
                    <mxGeometry x="300" y="330" width="40" height="20" as="geometry"/>
                </mxCell>
                <mxCell id="ZtBa_YAFVA_Vi5Olh_qq-11" value="No" style="text;html=1;strokeColor=none;fillColor=none;align=center;verticalAlign=middle;whiteSpace=wrap;rounded=0;" parent="6e0GRxbHZnDfmjbz0CYi-1" vertex="1">
                    <mxGeometry x="210" y="390" width="40" height="20" as="geometry"/>
                </mxCell>
                <mxCell id="ZtBa_YAFVA_Vi5Olh_qq-13" value="No" style="text;html=1;strokeColor=none;fillColor=none;align=center;verticalAlign=middle;whiteSpace=wrap;rounded=0;" parent="6e0GRxbHZnDfmjbz0CYi-1" vertex="1">
                    <mxGeometry x="210" y="300" width="40" height="20" as="geometry"/>
                </mxCell>
            </root>
        </mxGraphModel>
    </diagram>
    <diagram id="QbwHthgz6EUljjbAYSlr" name="6-2">
        <mxGraphModel dx="694" dy="575" grid="1" gridSize="10" guides="1" tooltips="1" connect="1" arrows="1" fold="1" page="1" pageScale="1" pageWidth="827" pageHeight="1169" math="0" shadow="0">
            <root>
                <mxCell id="5KGp_1IMHy--Tbf4WOsN-0"/>
                <mxCell id="5KGp_1IMHy--Tbf4WOsN-1" parent="5KGp_1IMHy--Tbf4WOsN-0"/>
                <mxCell id="j6jG5-B0yEDcUL3JUBND-0" value="" style="rounded=0;html=1;jettySize=auto;orthogonalLoop=1;fontSize=11;endArrow=classic;endFill=1;endSize=8;strokeWidth=1;shadow=0;labelBackgroundColor=none;edgeStyle=orthogonalEdgeStyle;entryX=0.5;entryY=0;entryDx=0;entryDy=0;" parent="5KGp_1IMHy--Tbf4WOsN-1" source="j6jG5-B0yEDcUL3JUBND-1" target="j6jG5-B0yEDcUL3JUBND-14" edge="1">
                    <mxGeometry relative="1" as="geometry">
                        <mxPoint x="220" y="150" as="targetPoint"/>
                    </mxGeometry>
                </mxCell>
                <mxCell id="j6jG5-B0yEDcUL3JUBND-1" value="開始" style="rounded=1;whiteSpace=wrap;html=1;fontSize=12;glass=0;strokeWidth=1;shadow=0;" parent="5KGp_1IMHy--Tbf4WOsN-1" vertex="1">
                    <mxGeometry x="160" y="80" width="120" height="40" as="geometry"/>
                </mxCell>
                <mxCell id="j6jG5-B0yEDcUL3JUBND-5" value="終了" style="rounded=1;whiteSpace=wrap;html=1;fontSize=12;glass=0;strokeWidth=1;shadow=0;" parent="5KGp_1IMHy--Tbf4WOsN-1" vertex="1">
                    <mxGeometry x="160" y="520" width="120" height="40" as="geometry"/>
                </mxCell>
                <mxCell id="j6jG5-B0yEDcUL3JUBND-18" value="" style="edgeStyle=orthogonalEdgeStyle;rounded=0;orthogonalLoop=1;jettySize=auto;html=1;endArrow=classic;endFill=1;" parent="5KGp_1IMHy--Tbf4WOsN-1" source="j6jG5-B0yEDcUL3JUBND-14" target="j6jG5-B0yEDcUL3JUBND-16" edge="1">
                    <mxGeometry relative="1" as="geometry"/>
                </mxCell>
                <mxCell id="j6jG5-B0yEDcUL3JUBND-14" value="Aを入力（数値）" style="shape=parallelogram;perimeter=parallelogramPerimeter;whiteSpace=wrap;html=1;fixedSize=1;" parent="5KGp_1IMHy--Tbf4WOsN-1" vertex="1">
                    <mxGeometry x="160" y="150" width="120" height="40" as="geometry"/>
                </mxCell>
                <mxCell id="j6jG5-B0yEDcUL3JUBND-24" style="edgeStyle=orthogonalEdgeStyle;rounded=0;orthogonalLoop=1;jettySize=auto;html=1;exitX=0.5;exitY=1;exitDx=0;exitDy=0;entryX=0.5;entryY=0;entryDx=0;entryDy=0;endArrow=classic;endFill=1;" parent="5KGp_1IMHy--Tbf4WOsN-1" source="j6jG5-B0yEDcUL3JUBND-16" target="j6jG5-B0yEDcUL3JUBND-19" edge="1">
                    <mxGeometry relative="1" as="geometry"/>
                </mxCell>
                <mxCell id="j6jG5-B0yEDcUL3JUBND-16" value="Bを入力（数値）" style="shape=parallelogram;perimeter=parallelogramPerimeter;whiteSpace=wrap;html=1;fixedSize=1;" parent="5KGp_1IMHy--Tbf4WOsN-1" vertex="1">
                    <mxGeometry x="160" y="220" width="120" height="40" as="geometry"/>
                </mxCell>
                <mxCell id="j6jG5-B0yEDcUL3JUBND-25" style="edgeStyle=orthogonalEdgeStyle;rounded=0;orthogonalLoop=1;jettySize=auto;html=1;exitX=0.5;exitY=1;exitDx=0;exitDy=0;entryX=0.5;entryY=0;entryDx=0;entryDy=0;endArrow=classic;endFill=1;" parent="5KGp_1IMHy--Tbf4WOsN-1" source="j6jG5-B0yEDcUL3JUBND-19" target="j6jG5-B0yEDcUL3JUBND-22" edge="1">
                    <mxGeometry relative="1" as="geometry"/>
                </mxCell>
                <mxCell id="j6jG5-B0yEDcUL3JUBND-28" style="edgeStyle=orthogonalEdgeStyle;rounded=0;orthogonalLoop=1;jettySize=auto;html=1;exitX=1;exitY=0.5;exitDx=0;exitDy=0;endArrow=classic;endFill=1;" parent="5KGp_1IMHy--Tbf4WOsN-1" source="j6jG5-B0yEDcUL3JUBND-19" target="j6jG5-B0yEDcUL3JUBND-20" edge="1">
                    <mxGeometry relative="1" as="geometry"/>
                </mxCell>
                <mxCell id="j6jG5-B0yEDcUL3JUBND-19" value="A &amp;gt;= B" style="rhombus;whiteSpace=wrap;html=1;" parent="5KGp_1IMHy--Tbf4WOsN-1" vertex="1">
                    <mxGeometry x="160" y="290" width="120" height="40" as="geometry"/>
                </mxCell>
                <mxCell id="j6jG5-B0yEDcUL3JUBND-29" style="edgeStyle=orthogonalEdgeStyle;rounded=0;orthogonalLoop=1;jettySize=auto;html=1;exitX=0.5;exitY=1;exitDx=0;exitDy=0;entryX=0.5;entryY=0;entryDx=0;entryDy=0;endArrow=classic;endFill=1;" parent="5KGp_1IMHy--Tbf4WOsN-1" source="j6jG5-B0yEDcUL3JUBND-20" target="j6jG5-B0yEDcUL3JUBND-21" edge="1">
                    <mxGeometry relative="1" as="geometry"/>
                </mxCell>
                <mxCell id="j6jG5-B0yEDcUL3JUBND-20" value="Bを出力" style="shape=parallelogram;perimeter=parallelogramPerimeter;whiteSpace=wrap;html=1;fixedSize=1;" parent="5KGp_1IMHy--Tbf4WOsN-1" vertex="1">
                    <mxGeometry x="320" y="360" width="120" height="30" as="geometry"/>
                </mxCell>
                <mxCell id="j6jG5-B0yEDcUL3JUBND-30" style="edgeStyle=orthogonalEdgeStyle;rounded=0;orthogonalLoop=1;jettySize=auto;html=1;exitX=0.5;exitY=1;exitDx=0;exitDy=0;endArrow=classic;endFill=1;" parent="5KGp_1IMHy--Tbf4WOsN-1" source="j6jG5-B0yEDcUL3JUBND-21" edge="1">
                    <mxGeometry relative="1" as="geometry">
                        <mxPoint x="220.0000000000001" y="480" as="targetPoint"/>
                        <Array as="points">
                            <mxPoint x="380" y="480"/>
                        </Array>
                    </mxGeometry>
                </mxCell>
                <mxCell id="j6jG5-B0yEDcUL3JUBND-21" value="Aを出力" style="shape=parallelogram;perimeter=parallelogramPerimeter;whiteSpace=wrap;html=1;fixedSize=1;" parent="5KGp_1IMHy--Tbf4WOsN-1" vertex="1">
                    <mxGeometry x="320" y="420" width="120" height="30" as="geometry"/>
                </mxCell>
                <mxCell id="j6jG5-B0yEDcUL3JUBND-26" style="edgeStyle=orthogonalEdgeStyle;rounded=0;orthogonalLoop=1;jettySize=auto;html=1;exitX=0.5;exitY=1;exitDx=0;exitDy=0;endArrow=classic;endFill=1;" parent="5KGp_1IMHy--Tbf4WOsN-1" source="j6jG5-B0yEDcUL3JUBND-22" target="j6jG5-B0yEDcUL3JUBND-23" edge="1">
                    <mxGeometry relative="1" as="geometry"/>
                </mxCell>
                <mxCell id="j6jG5-B0yEDcUL3JUBND-22" value="Aを出力" style="shape=parallelogram;perimeter=parallelogramPerimeter;whiteSpace=wrap;html=1;fixedSize=1;" parent="5KGp_1IMHy--Tbf4WOsN-1" vertex="1">
                    <mxGeometry x="160" y="360" width="120" height="30" as="geometry"/>
                </mxCell>
                <mxCell id="j6jG5-B0yEDcUL3JUBND-27" style="edgeStyle=orthogonalEdgeStyle;rounded=0;orthogonalLoop=1;jettySize=auto;html=1;exitX=0.5;exitY=1;exitDx=0;exitDy=0;entryX=0.5;entryY=0;entryDx=0;entryDy=0;endArrow=classic;endFill=1;" parent="5KGp_1IMHy--Tbf4WOsN-1" source="j6jG5-B0yEDcUL3JUBND-23" target="j6jG5-B0yEDcUL3JUBND-5" edge="1">
                    <mxGeometry relative="1" as="geometry"/>
                </mxCell>
                <mxCell id="j6jG5-B0yEDcUL3JUBND-23" value="Bを出力" style="shape=parallelogram;perimeter=parallelogramPerimeter;whiteSpace=wrap;html=1;fixedSize=1;" parent="5KGp_1IMHy--Tbf4WOsN-1" vertex="1">
                    <mxGeometry x="160" y="420" width="120" height="30" as="geometry"/>
                </mxCell>
                <mxCell id="j6jG5-B0yEDcUL3JUBND-31" value="No" style="text;html=1;strokeColor=none;fillColor=none;align=center;verticalAlign=middle;whiteSpace=wrap;rounded=0;" parent="5KGp_1IMHy--Tbf4WOsN-1" vertex="1">
                    <mxGeometry x="280" y="290" width="40" height="20" as="geometry"/>
                </mxCell>
                <mxCell id="j6jG5-B0yEDcUL3JUBND-32" value="Yes" style="text;html=1;strokeColor=none;fillColor=none;align=center;verticalAlign=middle;whiteSpace=wrap;rounded=0;" parent="5KGp_1IMHy--Tbf4WOsN-1" vertex="1">
                    <mxGeometry x="220" y="330" width="40" height="20" as="geometry"/>
                </mxCell>
            </root>
        </mxGraphModel>
    </diagram>
</mxfile>